<?xml version="1.0" encoding="UTF-8"?><svg id="a" xmlns="http://www.w3.org/2000/svg" viewBox="0 0 24 24"><path d="M6.05,22.12c.27-.27.8-.1.84-.64s-.46-.56-.82-.74c-1.05-.55-2.19-1.89-2.44-3.04-.31-1.38.17-3.77.39-5.23.19-1.25.37-2.91.75-4.09.31-.96,1.24-1.96,2.29-2.06.33-.03,1.07.14,1.12-.34.06-.5-.15-.97-.18-1.47C7.83,1.79,9.94.11,12.55.28c1.67.12,3.32,1.69,3.44,3.37.06.76-.13,1.24-.19,1.93-.07.96.31.67,1.02.73,2.4.2,2.66,2.98,2.97,4.84.27,1.61.62,3.62.69,5.23.08,1.78-.85,3.34-2.35,4.24-.25.15-.64.26-.85.4s-.23.52-.08.71c.2.22.6.13.81.43.15.21.14.66.12.92-.05.54-.49.63-.95.69H6.81c-.33-.06-.71-.11-.87-.45-.14-.29-.13-.98.12-1.21h0ZM9.98,4.6h3.96s.08-.04.12-.05c.25-.7-.08-1.53-.65-1.98-1.12-.9-3.34-.27-3.51,1.27,0,.14-.05.72.09.76ZM16,8.5c-.06.07-.04.29-.07.41-.08.33-.38.53-.7.55h-6.57c-.25-.03-.51-.21-.58-.46-.09-.31.08-.53-.35-.58-.83-.08-.9.22-1.07.93-.4,1.62-.64,3.46-.87,5.12-.12.88-.38,2.09-.17,2.94.27,1.07,1.33,1.87,2.42,1.93,2.58-.13,5.33.18,7.89,0,1.59-.11,2.59-1.38,2.51-2.94-.07-1.42-.41-3.21-.65-4.62-.13-.75-.26-1.57-.43-2.32-.06-.25-.18-.82-.4-.96-.17-.1-.84-.13-.97,0Z"/><path d="M11.09,10.52c.54-.16,1.68.81,2.03,1.2,1.49,1.58,2.92,4.58.55,6.1-.22.14-.92.49-1.15.36-.28-.16.15-.45.25-.59.61-.84.23-2.08-.39-2.8-.07-.08-.29-.33-.38-.32-.12,0-.54.55-.63.68-.46.69-.68,1.72-.16,2.44.1.13.58.47.26.6s-1.15-.38-1.4-.6c-1.2-1.01-1.26-2.57-.43-3.84.62-.95,1.18-1.24,1.3-2.51.02-.18-.07-.64.16-.71h0Z"/></svg>