<?xml version="1.0" encoding="UTF-8"?><svg id="a" xmlns="http://www.w3.org/2000/svg" viewBox="0 0 24 24"><path d="M5.91,22.36c.28-.28.82-.1.86-.65s-.47-.57-.84-.76c-1.07-.56-2.24-1.93-2.5-3.11-.32-1.41.17-3.86.4-5.35.19-1.28.38-2.98.77-4.19.32-.98,1.27-2.01,2.34-2.11.34-.03,1.09.14,1.15-.35.06-.51-.15-.99-.18-1.5C7.73,1.55,9.89-.17,12.56.01c1.71.12,3.4,1.73,3.52,3.45.06.78-.13,1.27-.19,1.97-.07.98.32.69,1.04.75,2.46.2,2.72,3.05,3.04,4.95.28,1.65.63,3.7.71,5.35.08,1.82-.87,3.42-2.41,4.34-.26.15-.66.27-.87.41s-.24.53-.08.73c.2.23.61.13.83.44.15.21.14.68.12.94-.05.55-.5.64-.97.71H6.69c-.34-.06-.73-.11-.89-.46-.14-.3-.13-1,.12-1.24ZM9.93,4.43h4.05s.08-.04.12-.05c.26-.72-.08-1.57-.67-2.03-1.15-.92-3.42-.28-3.59,1.3-.01.14-.05.74.09.78ZM16.09,8.42c-.06.07-.04.3-.07.42-.08.34-.39.54-.72.56h-6.72c-.26-.03-.52-.22-.59-.47-.09-.32.08-.54-.36-.59-.85-.08-.92.23-1.09.95-.41,1.66-.66,3.54-.89,5.24-.12.9-.39,2.14-.17,3.01.28,1.1,1.36,1.91,2.48,1.97,2.64-.13,5.45.18,8.07,0,1.63-.11,2.65-1.41,2.57-3.01-.07-1.45-.42-3.28-.67-4.73-.13-.77-.27-1.61-.44-2.37-.06-.26-.18-.84-.41-.98-.17-.1-.86-.13-.99,0Z"/><path d="M11,10.38c.59-.18,1.83.89,2.22,1.31,1.63,1.73,3.19,5,.6,6.66-.24.15-1.01.54-1.26.39-.31-.18.16-.49.27-.65.67-.92.25-2.27-.43-3.06-.08-.09-.32-.36-.42-.35-.13.01-.59.6-.69.74-.5.75-.74,1.88-.17,2.67.11.14.63.51.28.66s-1.26-.42-1.53-.66c-1.31-1.1-1.38-2.81-.47-4.2.68-1.04,1.29-1.35,1.42-2.74.02-.2-.08-.7.17-.78Z"/></svg>